<?xml version="1.0" encoding="utf-8"?>
<!-- Generator: Adobe Illustrator 27.1.1, SVG Export Plug-In . SVG Version: 6.00 Build 0)  -->
<svg version="1.1" id="Layer_1" xmlns="http://www.w3.org/2000/svg" xmlns:xlink="http://www.w3.org/1999/xlink" x="0px" y="0px"
	 viewBox="0 0 800 250" style="enable-background:new 0 0 800 250;" xml:space="preserve">
<style type="text/css">
	.st0{fill:#D1D3D4;}
</style>
<g>
	<g>
		<path class="st0" d="M134.15,106.46c5.62-5.62,12.39-8.44,20.3-8.44c7.91,0,14.67,2.81,20.3,8.44c5.62,5.63,8.44,12.39,8.44,20.3
			c0,7.91-2.81,14.68-8.44,20.3c-5.63,5.63-12.39,8.44-20.3,8.44c-7.91,0-14.68-2.81-20.3-8.44c-5.63-5.62-8.44-12.39-8.44-20.3
			C125.71,118.86,128.53,112.09,134.15,106.46z M137.87,143.34c4.54,4.54,10.07,6.81,16.58,6.81s12.04-2.27,16.58-6.81
			c4.54-4.54,6.81-10.07,6.81-16.58c0-6.52-2.27-12.04-6.81-16.58c-4.54-4.54-10.07-6.81-16.58-6.81s-12.04,2.27-16.58,6.81
			c-4.54,4.54-6.81,10.07-6.81,16.58C131.06,133.28,133.33,138.81,137.87,143.34z"/>
	</g>
</g>
<g>
	<g>
		<path class="st0" d="M224.31,106.46c5.62-5.62,12.39-8.44,20.3-8.44c7.91,0,14.67,2.81,20.3,8.44c5.62,5.63,8.44,12.39,8.44,20.3
			c0,7.91-2.81,14.68-8.44,20.3c-5.63,5.63-12.39,8.44-20.3,8.44c-7.91,0-14.68-2.81-20.3-8.44c-5.63-5.62-8.44-12.39-8.44-20.3
			C215.87,118.86,218.68,112.09,224.31,106.46z M228.03,143.34c4.54,4.54,10.07,6.81,16.58,6.81s12.04-2.27,16.58-6.81
			c4.54-4.54,6.81-10.07,6.81-16.58c0-6.52-2.27-12.04-6.81-16.58c-4.54-4.54-10.07-6.81-16.58-6.81s-12.04,2.27-16.58,6.81
			c-4.54,4.54-6.81,10.07-6.81,16.58C221.22,133.28,223.49,138.81,228.03,143.34z"/>
	</g>
</g>
<g>
	<g>
		<path class="st0" d="M315.4,149.22h31.61v5.27h-36.96V99.05h5.35V149.22z"/>
	</g>
</g>
<g>
	<g>
		<path class="st0" d="M485.17,149.22h31.61v5.27h-36.96V99.05h5.35V149.22z"/>
	</g>
</g>
<g>
	<g>
		<path class="st0" d="M651.07,150.31c6.24,0,11.53-2.03,15.87-6.1l2.17,4.85c-2.23,2.06-4.96,3.68-8.19,4.84
			c-3.23,1.17-6.4,1.75-9.52,1.75c-8.02,0-14.87-2.81-20.55-8.44c-5.68-5.62-8.52-12.39-8.52-20.3c0-7.91,2.84-14.67,8.52-20.3
			c5.68-5.62,12.53-8.44,20.55-8.44c3.12,0,6.29,0.58,9.52,1.75c3.23,1.17,5.96,2.78,8.19,4.84l-2.17,4.84
			c-4.4-4.07-9.69-6.1-15.87-6.1c-6.46,0-11.97,2.28-16.54,6.85c-4.57,4.57-6.85,10.08-6.85,16.54c0,6.46,2.28,11.97,6.85,16.54
			C639.1,148.03,644.61,150.31,651.07,150.31z"/>
	</g>
</g>
<g>
	<g>
		<path class="st0" d="M74.27,99.07H54.25v0.01h-2.97v5.36H69.2v0.03h5.07c7.96,0,14.44,6.48,14.44,14.44
			c0,7.96-6.48,14.44-14.44,14.44H56.49v-0.01h-5.21v21.37h5.3v-4.97h-0.09v-11h17.78c10.94,0,19.84-8.9,19.84-19.83
			S85.21,99.07,74.27,99.07z"/>
	</g>
</g>
<g>
	<g>
		<path class="st0" d="M423.89,99.05h-20.02v0.01h-2.97v5.36h17.91v0.03h5.08c7.97,0,14.45,6.48,14.45,14.45
			c0,7.97-6.48,14.45-14.45,14.45H406.1v-0.01h-5.21v21.38h5.3v-4.97h-0.09v-11h17.78c10.94,0,19.84-8.9,19.84-19.84
			S434.83,99.05,423.89,99.05z"/>
	</g>
</g>
<g>
	<polygon class="st0" points="570.55,99.06 566.2,99.06 540.32,154.69 546.63,154.69 551.92,143.12 551.92,143.12 557.02,131.94 
		557.03,131.94 568.37,107.12 581.78,136.46 581.76,136.46 584.33,142.07 584.34,142.07 590.11,154.69 596.42,154.69 	"/>
</g>
<g>
	<rect x="708.24" y="98.98" class="st0" width="35.92" height="5.4"/>
</g>
<g>
	<rect x="708.24" y="124.08" class="st0" width="35.92" height="5.4"/>
</g>
<g>
	<rect x="708.24" y="149.3" class="st0" width="35.92" height="5.4"/>
</g>
</svg>
